<svg xmlns="http://www.w3.org/2000/svg" width="105" height="24" viewBox="0 0 105 24" fill="none">
  <g clip-path="url(#clip0_1_193)">
    <path d="M50.3073 21.1034C50.1346 22.677 48.4232 22.8279 47.1076 22.733C46.0667 22.6587 45.2564 22.3545 45.0283 21.2847C44.9199 15.0742 44.9237 8.8271 45.027 2.61655C45.2186 1.87781 45.6105 1.51027 46.3742 1.33745C47.4529 1.09282 49.2537 1.13663 50.0565 1.97031L56.9359 10.7111L57.1098 10.5869C59.3479 7.88633 61.3718 4.91189 63.6666 2.26605C63.8355 2.07132 64.0623 1.7768 64.2728 1.6344C65.0982 1.07335 67.5796 1.05631 68.376 1.65631C68.9771 2.10905 68.9847 2.80519 69.0603 3.47822V20.277C68.9582 21.3115 68.87 22.3423 67.6489 22.6137C66.2916 22.9143 63.6654 22.8693 63.6654 21.006V10.2717C62.2099 11.894 61.0542 13.7695 59.7046 15.477C59.0518 16.3034 58.4292 17.103 57.2409 17.1869C55.2976 17.3257 54.447 15.6766 53.4426 14.3768C52.4382 13.077 51.4162 11.591 50.3085 10.2717V21.1034H50.3073Z" fill="#1E0E62"/>
    <path d="M28.6318 20.8601L28.57 21.2873C28.323 22.3777 27.4951 22.6613 26.439 22.7343C25.228 22.8183 23.4461 22.6552 23.2948 21.196C23.1663 15.1364 23.2747 9.06091 23.2394 2.99519C23.383 1.52988 24.3257 1.239 25.6816 1.1672C27.7874 1.05523 30.5838 1.06253 32.6922 1.1672C35.4344 1.30351 38.1879 2.79925 39.5287 5.12866C40.9503 7.59681 40.8973 11.0289 39.2389 13.385C38.9541 13.7891 38.5723 14.1347 38.2673 14.523L40.4638 19.413C41.1531 20.8784 40.6591 21.6986 39.2691 22.3729C38.106 22.9364 36.6051 23.3806 35.7784 22.0881L33.413 16.7538L28.6305 16.8451V20.8613L28.6318 20.8601ZM28.6318 11.5863H32.9921C33.2681 11.5863 34.2523 11.0301 34.4741 10.8268C35.4923 9.89093 35.4054 7.90351 34.3027 7.05888C34.0771 6.88606 33.2 6.42602 32.9417 6.42602H28.6318V11.5863Z" fill="#1E0E62"/>
    <path d="M76.1036 0.645023C76.808 0.537924 77.3008 0.905469 77.8061 1.31318L84.0554 8.22596L89.8007 1.84867C91.1378 0.46977 91.8637 0.169161 93.4792 1.46166C95.178 2.81987 95.3216 3.67788 93.885 5.30628C92.03 7.40932 89.9582 9.34928 88.0868 11.4389C88.0301 11.5022 87.7579 11.8114 87.7579 11.8539L94.0589 18.5732C94.4811 19.1063 94.9486 19.7099 94.8667 20.4219C94.7583 21.3675 92.7382 23.0458 91.7616 23.0702C91.139 23.0848 90.4132 22.4653 90.0023 22.054L84.1033 15.4807C84.0378 15.4649 83.9471 15.5817 83.903 15.6268C81.9597 17.5667 80.232 19.884 78.3089 21.8592C77.8817 22.2986 77.0954 23.0568 76.4375 23.0702C75.4672 23.0896 73.6437 21.544 73.3185 20.6896C72.9077 19.6114 74.0419 18.6718 74.6783 17.9148L80.3883 11.8552L80.2748 11.6823C78.3001 9.43448 75.9461 7.33508 74.023 5.06409C73.4647 4.40567 72.9619 3.70466 73.3841 2.83934C73.7256 2.14076 75.3059 0.766727 76.1023 0.645023H76.1036Z" fill="#1E0E62"/>
    <path d="M7.20835 16.649V21.4928C7.20835 22.4872 5.74778 23.4608 4.80767 23.5557C2.67667 23.7711 1.25768 23.0677 0.87206 20.9427C0.418387 18.4466 0.675468 13.2912 2.0075 11.0665C2.30239 10.5736 2.58971 10.3216 3.02322 9.9541C3.3534 9.67418 4.07045 9.23726 4.30737 8.95491C4.48632 8.74071 4.39558 8.44497 4.13472 8.34761C3.67727 8.17844 3.12908 8.34883 2.57207 8.15288C0.0970356 7.28148 -0.202893 2.93909 2.11714 2.02023C3.30299 1.55167 6.04141 1.63077 7.3873 1.60887C11.8547 1.53463 17.1488 1.11962 18.6371 6.27012C19.1677 8.10542 19.1727 10.8827 18.501 12.6827C16.83 17.1602 11.2372 16.7549 7.20835 16.649ZM7.17055 11.7687C7.40495 11.9841 9.32675 11.9221 9.75648 11.9245C11.1692 11.9367 12.6839 12.2202 13.367 10.6941C13.9038 9.49649 13.4665 8.0543 12.166 7.55288C11.3847 7.25106 8.95373 7.28757 8.03757 7.34964C7.75402 7.36911 7.40116 7.40197 7.20709 7.6186C6.58959 8.30866 6.69293 10.3935 6.94119 11.2356C6.97144 11.3367 7.11006 11.7152 7.16929 11.7699L7.17055 11.7687Z" fill="#1E0E62"/>
    <path d="M100.756 17.2964C101.553 17.2332 103.198 17.3135 103.785 17.8952C104.361 18.466 104.354 20.1017 104.297 20.8612C104.158 22.7111 102.579 22.8754 100.991 22.7841C99.2888 22.6855 98.699 22.1098 98.5969 20.4717C98.4885 18.7277 98.7078 17.4595 100.757 17.2952L100.756 17.2964Z" fill="#1E0E62"/>
  </g>
  <defs>
    <clipPath id="clip0_1_193">
      <rect width="105" height="24" fill="white"/>
    </clipPath>
  </defs>
</svg>
