<svg width="108" height="26" viewBox="0 0 108 26" fill="none" xmlns="http://www.w3.org/2000/svg">
<path d="M51.7446 22.6956C51.567 24.3716 49.8067 24.5323 48.4535 24.4312C47.3828 24.3521 46.5494 24.0281 46.3148 22.8887C46.2033 16.2742 46.2072 9.62073 46.3135 3.00619C46.5105 2.21939 46.9136 1.82793 47.6991 1.64387C48.8087 1.38333 50.6609 1.43 51.4866 2.3179L58.5626 11.6273L58.7415 11.495C61.0436 8.61876 63.1253 5.45083 65.4857 2.63288C65.6594 2.42548 65.8927 2.1118 66.1091 1.96015C66.9582 1.36259 69.5104 1.34445 70.3296 1.98348C70.9479 2.46567 70.9557 3.2071 71.0334 3.9239V21.8155C70.9284 22.9172 70.8377 24.0151 69.5817 24.3042C68.1857 24.6243 65.4844 24.5764 65.4844 22.5919V11.1593C63.9872 12.8872 62.7986 14.8846 61.4104 16.7032C60.7389 17.5833 60.0986 18.4349 58.8763 18.5244C56.8775 18.6721 56.0026 16.9158 54.9695 15.5314C53.9365 14.1471 52.8852 12.5644 51.7459 11.1593V22.6956H51.7446Z" fill="white"/>
<path d="M29.4498 22.4363L29.3863 22.8913C29.1322 24.0527 28.2806 24.3547 27.1944 24.4325C25.9488 24.5219 24.1159 24.3482 23.9604 22.7941C23.8282 16.3403 23.9396 9.8696 23.9033 3.4093C24.0511 1.84867 25.0207 1.53888 26.4154 1.4624C28.5814 1.34315 31.4576 1.35093 33.6262 1.4624C36.4467 1.60758 39.279 3.20062 40.6581 5.68156C42.1202 8.31027 42.0658 11.9656 40.36 14.475C40.067 14.9054 39.6743 15.2735 39.3606 15.687L41.6199 20.8951C42.3289 22.4558 41.8208 23.3294 40.3911 24.0475C39.1947 24.6477 37.6509 25.1208 36.8006 23.7442L34.3676 18.0629L29.4485 18.1601V22.4376L29.4498 22.4363ZM29.4498 12.5592H33.9347C34.2186 12.5592 35.2309 11.9669 35.459 11.7504C36.5064 10.7536 36.4169 8.63691 35.2827 7.73734C35.0507 7.55328 34.1486 7.06331 33.8828 7.06331H29.4498V12.5592Z" fill="white"/>
<path d="M78.2779 0.906378C79.0025 0.792312 79.5093 1.18377 80.0291 1.618L86.457 8.98045L92.3664 2.18833C93.7417 0.719724 94.4883 0.399561 96.15 1.77613C97.8973 3.2227 98.0451 4.13653 96.5674 5.87085C94.6594 8.1107 92.5284 10.1769 90.6036 12.4024C90.5452 12.4698 90.2652 12.7991 90.2652 12.8444L96.7463 20.0008C97.1805 20.5685 97.6614 21.2115 97.5772 21.9698C97.4657 22.9769 95.3879 24.7644 94.3833 24.7903C93.743 24.8059 92.9964 24.1461 92.5738 23.708L86.5062 16.7071C86.4388 16.6903 86.3455 16.8147 86.3001 16.8627C84.3014 18.9288 82.5243 21.3968 80.5463 23.5006C80.1069 23.9685 79.298 24.776 78.6214 24.7903C77.6233 24.811 75.7477 23.1649 75.4133 22.2549C74.9907 21.1065 76.1573 20.1058 76.8119 19.2996L82.685 12.8457L82.5684 12.6617C80.5372 10.2676 78.1159 8.03163 76.1379 5.61291C75.5637 4.91166 75.0465 4.16504 75.4807 3.24344C75.832 2.49942 77.4574 1.036 78.2766 0.906378H78.2779Z" fill="white"/>
<path d="M7.41429 17.9515V23.1104C7.41429 24.1694 5.91199 25.2063 4.94502 25.3074C2.75313 25.5369 1.2936 24.7877 0.896962 22.5245C0.430327 19.866 0.694753 14.3752 2.06484 12.0058C2.36816 11.4808 2.66369 11.2125 3.10959 10.821C3.44919 10.5229 4.18674 10.0576 4.43042 9.75683C4.61448 9.5287 4.52116 9.21372 4.25284 9.11002C3.78232 8.92985 3.21847 9.11132 2.64555 8.90263C0.0997941 7.97455 -0.208703 3.34968 2.17761 2.37104C3.39735 1.872 6.214 1.95626 7.59835 1.93292C12.1934 1.85386 17.6388 1.41185 19.1696 6.8974C19.7153 8.85208 19.7205 11.81 19.0296 13.7271C17.3108 18.4959 11.5583 18.0642 7.41429 17.9515ZM7.37541 12.7537C7.6165 12.9831 9.59322 12.917 10.0352 12.9196C11.4883 12.9325 13.0463 13.2346 13.7489 11.6091C14.301 10.3336 13.8513 8.79764 12.5136 8.2636C11.7099 7.94214 9.20954 7.98103 8.2672 8.04713C7.97555 8.06787 7.61261 8.10287 7.413 8.3336C6.77785 9.06855 6.88414 11.2889 7.1395 12.1859C7.17061 12.2935 7.31319 12.6966 7.37411 12.755L7.37541 12.7537Z" fill="white"/>
<path d="M103.634 18.641C104.455 18.5736 106.146 18.6592 106.751 19.2787C107.343 19.8867 107.335 21.6288 107.277 22.4376C107.134 24.4078 105.51 24.5828 103.877 24.4856C102.126 24.3806 101.519 23.7675 101.414 22.0228C101.303 20.1654 101.528 18.8147 103.636 18.6397L103.634 18.641Z" fill="white"/>
</svg>
