<svg width="60" height="60" viewBox="0 0 60 60" fill="none" xmlns="http://www.w3.org/2000/svg">
<g clip-path="url(#clip0_1_322)">
<path d="M1.62891 30.0059C1.62891 37.5195 4.61367 44.7253 9.92659 50.0383C15.2395 55.3512 22.4454 58.3359 29.959 58.3359C37.4726 58.3359 44.6785 55.3512 49.9914 50.0383C55.3043 44.7253 58.2891 37.5195 58.2891 30.0059C58.2891 22.4923 55.3043 15.2864 49.9914 9.97347C44.6785 4.66055 37.4726 1.67578 29.959 1.67578C22.4454 1.67578 15.2395 4.66055 9.92659 9.97347C4.61367 15.2864 1.62891 22.4923 1.62891 30.0059Z" fill="url(#paint0_linear_1_322)"/>
<path d="M29.959 59.2207C26.0156 59.2207 22.1895 58.4473 18.5859 56.9238C15.1055 55.4531 11.9824 53.3438 9.29883 50.666C6.62109 47.9824 4.51758 44.8594 3.04688 41.3789C1.52344 37.7754 0.75 33.9492 0.75 30.0059C0.75 26.0625 1.52344 22.2363 3.04688 18.6387C4.51758 15.1582 6.62695 12.0352 9.30469 9.35156C11.9824 6.66797 15.1113 4.56445 18.5918 3.09375C22.1953 1.57031 26.0215 0.796875 29.9648 0.796875C33.9082 0.796875 37.7344 1.57031 41.3379 3.09375C44.8184 4.56445 47.9414 6.67383 50.625 9.35156C53.3086 12.0352 55.4121 15.1582 56.8828 18.6387C58.4062 22.2422 59.1797 26.0684 59.1797 30.0117C59.1797 33.9551 58.4062 37.7812 56.8828 41.3848C55.4121 44.8652 53.3027 47.9883 50.625 50.6719C47.9414 53.3555 44.8184 55.459 41.3379 56.9297C37.7285 58.4473 33.9023 59.2207 29.959 59.2207ZM29.959 2.55469C26.2559 2.55469 22.6582 3.28125 19.2773 4.71094C16.0078 6.09375 13.0723 8.07422 10.5469 10.5937C8.02148 13.1133 6.04687 16.0547 4.66406 19.3242C3.23437 22.7109 2.50781 26.3027 2.50781 30.0117C2.50781 33.7207 3.23437 37.3125 4.66406 40.6992C6.04687 43.9629 8.02734 46.8984 10.5469 49.418C13.0664 51.9375 16.002 53.918 19.2715 55.3008C22.6582 56.7305 26.25 57.457 29.959 57.457C33.668 57.457 37.2598 56.7305 40.6465 55.3008C43.916 53.918 46.8516 51.9375 49.3711 49.418C51.8906 46.8984 53.8711 43.9629 55.2539 40.6934C56.6836 37.3066 57.4102 33.7148 57.4102 30.0059C57.4102 26.2969 56.6836 22.7051 55.2539 19.3184C53.8711 16.0488 51.8906 13.1133 49.3711 10.5937C46.8516 8.07422 43.916 6.09375 40.6465 4.71094C37.2598 3.28125 33.668 2.55469 29.959 2.55469Z" fill="white"/>
<path d="M6.73828 30.0059C6.73828 36.1644 9.18474 42.0706 13.5395 46.4254C17.8942 50.7801 23.8005 53.2266 29.959 53.2266C36.1175 53.2266 42.0238 50.7801 46.3785 46.4254C50.7332 42.0706 53.1797 36.1644 53.1797 30.0059C53.1797 23.8473 50.7332 17.9411 46.3785 13.5863C42.0238 9.23162 36.1175 6.78516 29.959 6.78516C23.8005 6.78516 17.8942 9.23162 13.5395 13.5863C9.18474 17.9411 6.73828 23.8473 6.73828 30.0059Z" fill="url(#paint1_linear_1_322)"/>
<path d="M29.959 54.1055C26.707 54.1055 23.5488 53.4668 20.5781 52.2129C17.707 51 15.1289 49.2598 12.9199 47.0508C10.7109 44.8418 8.9707 42.2578 7.75781 39.3926C6.49805 36.416 5.85938 33.2578 5.85938 30.0059C5.85938 26.7539 6.49805 23.5957 7.75195 20.625C8.96484 17.7539 10.7051 15.1758 12.9141 12.9668C15.1289 10.752 17.707 9.01758 20.5723 7.80469C23.543 6.54492 26.7012 5.91211 29.9531 5.91211C33.2051 5.91211 36.3633 6.55078 39.334 7.80469C42.2051 9.01758 44.7832 10.7578 46.9922 12.9668C49.207 15.1816 50.9414 17.7598 52.1543 20.625C53.4141 23.5957 54.0469 26.7539 54.0469 30.0059C54.0469 33.2578 53.4082 36.416 52.1543 39.3867C50.9414 42.2578 49.2012 44.8359 46.9922 47.0449C44.7832 49.2539 42.1992 50.9941 39.334 52.207C36.3691 53.4727 33.2168 54.1055 29.959 54.1055ZM29.959 7.66406C26.9414 7.66406 24.0176 8.25586 21.2637 9.42188C18.6035 10.5469 16.2129 12.1582 14.1621 14.209C12.1113 16.2598 10.5 18.6504 9.375 21.3105C8.20898 24.0645 7.61719 26.9883 7.61719 30.0059C7.61719 33.0234 8.20898 35.9473 9.375 38.7012C10.5 41.3613 12.1113 43.752 14.1621 45.8027C16.2129 47.8535 18.6035 49.4648 21.2637 50.5898C24.0176 51.7559 26.9414 52.3477 29.959 52.3477C32.9766 52.3477 35.9004 51.7559 38.6543 50.5898C41.3145 49.4648 43.7051 47.8535 45.7559 45.8027C47.8066 43.752 49.418 41.3613 50.543 38.7012C51.709 35.9473 52.3008 33.0234 52.3008 30.0059C52.3008 26.9883 51.709 24.0645 50.543 21.3105C49.418 18.6504 47.8066 16.2598 45.7559 14.209C43.7051 12.1582 41.3145 10.5469 38.6543 9.42188C35.9004 8.25586 32.9766 7.66406 29.959 7.66406Z" fill="white"/>
<path d="M29.959 14.4551C29.4727 14.4551 29.0801 14.0625 29.0801 13.5762V10.8105C29.0801 10.3242 29.4727 9.93164 29.959 9.93164C30.4453 9.93164 30.8379 10.3242 30.8379 10.8105V13.5762C30.8379 14.0625 30.4453 14.4551 29.959 14.4551ZM29.959 50.0801C29.4727 50.0801 29.0801 49.6875 29.0801 49.2012V46.4355C29.0801 45.9492 29.4727 45.5566 29.959 45.5566C30.4453 45.5566 30.8379 45.9492 30.8379 46.4355V49.2012C30.8379 49.6875 30.4453 50.0801 29.959 50.0801ZM41.5781 19.2656C41.3555 19.2656 41.127 19.1777 40.957 19.0078C40.6113 18.6621 40.6113 18.1055 40.957 17.7656L42.9141 15.8086C43.2598 15.4629 43.8164 15.4629 44.1562 15.8086C44.5019 16.1543 44.5019 16.7109 44.1562 17.0508L42.1992 19.0078C42.0293 19.1836 41.8066 19.2656 41.5781 19.2656ZM16.3887 44.4609C16.166 44.4609 15.9375 44.373 15.7676 44.2031C15.4219 43.8574 15.4219 43.3008 15.7676 42.9609L17.7246 41.0039C18.0703 40.6582 18.627 40.6582 18.9668 41.0039C19.3125 41.3496 19.3125 41.9062 18.9668 42.2461L17.0098 44.2031C16.8398 44.373 16.6113 44.4609 16.3887 44.4609ZM49.1543 30.8848H46.3887C45.9023 30.8848 45.5098 30.4922 45.5098 30.0059C45.5098 29.5195 45.9023 29.127 46.3887 29.127H49.1543C49.6406 29.127 50.0332 29.5195 50.0332 30.0059C50.0332 30.4922 49.6406 30.8848 49.1543 30.8848ZM13.5293 30.8848H10.7637C10.2773 30.8848 9.88477 30.4922 9.88477 30.0059C9.88477 29.5195 10.2773 29.127 10.7637 29.127H13.5293C14.0156 29.127 14.4082 29.5195 14.4082 30.0059C14.4082 30.4922 14.0156 30.8848 13.5293 30.8848ZM43.5352 44.4609C43.3125 44.4609 43.084 44.373 42.9141 44.2031L40.957 42.2461C40.6113 41.9004 40.6113 41.3438 40.957 41.0039C41.3027 40.6582 41.8594 40.6582 42.1992 41.0039L44.1562 42.9609C44.5019 43.3066 44.5019 43.8633 44.1562 44.2031C43.9863 44.373 43.7578 44.4609 43.5352 44.4609ZM18.3398 19.2656C18.1172 19.2656 17.8887 19.1777 17.7188 19.0078L15.7617 17.0508C15.416 16.7051 15.416 16.1484 15.7617 15.8086C16.1074 15.4629 16.6641 15.4629 17.0039 15.8086L18.9609 17.7656C19.3066 18.1113 19.3066 18.668 18.9609 19.0078C18.791 19.1836 18.5684 19.2656 18.3398 19.2656Z" fill="white"/>
<path d="M28.8867 30.0059L29.959 15.9785L31.0371 30.0059H28.8867Z" fill="url(#paint2_linear_1_322)"/>
<path d="M31.0371 30.8848H28.8867C28.6406 30.8848 28.4063 30.7852 28.2422 30.6035C28.0781 30.4219 27.9903 30.1816 28.0078 29.9414L29.0801 15.9082C29.1153 15.4512 29.4961 15.0938 29.959 15.0938C30.416 15.0938 30.8028 15.4453 30.8379 15.9082L31.9102 29.9414C31.9278 30.1875 31.8457 30.4277 31.6758 30.6035C31.5059 30.7793 31.2774 30.8848 31.0371 30.8848ZM29.836 29.127H30.0879L29.9649 27.4922L29.836 29.127Z" fill="white"/>
<path d="M30.3223 29.2793L38.4609 38.7715L28.9688 30.6328L30.3223 29.2793Z" fill="url(#paint3_linear_1_322)"/>
<path d="M38.4609 39.6504C38.2559 39.6504 38.0566 39.58 37.8867 39.4394L28.3945 31.3008C28.207 31.1425 28.0957 30.914 28.0898 30.6679C28.0781 30.4218 28.1719 30.1875 28.3477 30.0117L29.6953 28.664C29.8711 28.4883 30.1055 28.4004 30.3516 28.4062C30.5977 28.4179 30.8262 28.5293 30.9844 28.7109L39.1231 38.2031C39.4219 38.5547 39.4043 39.0703 39.0762 39.3984C38.9121 39.5625 38.6895 39.6504 38.4609 39.6504ZM30.2637 30.58L30.3164 30.6269L30.2695 30.5742L30.2637 30.58Z" fill="white"/>
<path d="M14.1797 36.123L29.7656 30.0059L14.1797 36.123Z" fill="url(#paint4_linear_1_322)"/>
<path d="M14.1797 37.002C13.8281 37.002 13.5 36.791 13.3594 36.4453C13.1836 35.9942 13.4063 35.4844 13.8574 35.3086L29.4434 29.1973C29.8945 29.0215 30.4043 29.2442 30.5801 29.6953C30.7559 30.1465 30.5332 30.6563 30.082 30.832L14.4961 36.9434C14.3965 36.9785 14.2852 37.002 14.1797 37.002Z" fill="white"/>
<path d="M28.1953 30.0059C28.1953 30.2375 28.2409 30.4668 28.3296 30.6808C28.4182 30.8948 28.5481 31.0892 28.7119 31.253C28.8757 31.4167 29.0701 31.5466 29.2841 31.6353C29.498 31.7239 29.7274 31.7695 29.959 31.7695C30.1906 31.7695 30.4199 31.7239 30.6339 31.6353C30.8479 31.5466 31.0423 31.4167 31.2061 31.253C31.3699 31.0892 31.4998 30.8948 31.5884 30.6808C31.677 30.4668 31.7227 30.2375 31.7227 30.0059C31.7227 29.7742 31.677 29.5449 31.5884 29.3309C31.4998 29.117 31.3699 28.9225 31.2061 28.7588C31.0423 28.595 30.8479 28.4651 30.6339 28.3764C30.4199 28.2878 30.1906 28.2422 29.959 28.2422C29.7274 28.2422 29.498 28.2878 29.2841 28.3764C29.0701 28.4651 28.8757 28.595 28.7119 28.7588C28.5481 28.9225 28.4182 29.117 28.3296 29.3309C28.2409 29.5449 28.1953 29.7742 28.1953 30.0059Z" fill="url(#paint5_linear_1_322)"/>
<path d="M29.959 32.6543C28.5 32.6543 27.3164 31.4707 27.3164 30.0117C27.3164 28.5527 28.5 27.3691 29.959 27.3691C31.418 27.3691 32.6016 28.5527 32.6016 30.0117C32.6074 31.4648 31.418 32.6543 29.959 32.6543ZM29.959 29.1211C29.4727 29.1211 29.0742 29.5195 29.0742 30.0059C29.0742 30.4922 29.4727 30.8906 29.959 30.8906C30.4453 30.8906 30.8438 30.4922 30.8438 30.0059C30.8496 29.5195 30.4512 29.1211 29.959 29.1211Z" fill="white"/>
</g>
<defs>
<linearGradient id="paint0_linear_1_322" x1="58.2891" y1="30.2295" x2="1.62967" y2="29.7" gradientUnits="userSpaceOnUse">
<stop stop-color="#2685BF"/>
<stop offset="1" stop-color="#90007F"/>
</linearGradient>
<linearGradient id="paint1_linear_1_322" x1="53.1797" y1="30.1892" x2="6.73891" y2="29.7552" gradientUnits="userSpaceOnUse">
<stop stop-color="#2685BF"/>
<stop offset="1" stop-color="#90007F"/>
</linearGradient>
<linearGradient id="paint2_linear_1_322" x1="31.0371" y1="23.0476" x2="28.8866" y2="23.0445" gradientUnits="userSpaceOnUse">
<stop stop-color="#2685BF"/>
<stop offset="1" stop-color="#90007F"/>
</linearGradient>
<linearGradient id="paint3_linear_1_322" x1="38.4609" y1="34.0629" x2="28.9689" y2="33.9742" gradientUnits="userSpaceOnUse">
<stop stop-color="#2685BF"/>
<stop offset="1" stop-color="#90007F"/>
</linearGradient>
<linearGradient id="paint4_linear_1_322" x1="29.7656" y1="33.0886" x2="14.1874" y2="32.7176" gradientUnits="userSpaceOnUse">
<stop stop-color="#2685BF"/>
<stop offset="1" stop-color="#90007F"/>
</linearGradient>
<linearGradient id="paint5_linear_1_322" x1="31.7227" y1="30.0198" x2="28.1954" y2="29.9868" gradientUnits="userSpaceOnUse">
<stop stop-color="#2685BF"/>
<stop offset="1" stop-color="#90007F"/>
</linearGradient>
<clipPath id="clip0_1_322">
<rect width="60" height="60" fill="white"/>
</clipPath>
</defs>
</svg>
