<svg width="60" height="60" viewBox="0 0 60 60" fill="none" xmlns="http://www.w3.org/2000/svg">
<path d="M56.1067 15.6183C71.3983 20.4156 38.8163 -5.37014 7.53357 1.02633C-1.56141 2.92528 1.53688 10.9209 1.53688 10.9209C-0.561961 13.9192 -0.462016 18.1169 1.53688 21.2152C3.23594 23.8138 1.53688 28.3113 6.43418 33.3085C7.23373 34.1081 4.33533 38.5056 10.0322 42.6034C11.2315 43.5029 13.2304 45.0021 12.7307 47.3008C12.131 50.0992 17.7279 52.6978 18.7274 55.896C20.8262 62.3925 28.8218 60.4935 32.5198 54.7966C32.5198 54.7966 31.2205 55.1964 30.7208 54.2969C34.8185 52.298 35.4182 47.0009 30.1211 46.5012C34.9184 42.4035 32.7197 37.0065 39.7158 35.7072C45.4127 34.7077 46.4121 32.3091 46.4121 32.3091C54.3077 32.409 65.3017 27.1119 56.1067 15.6183ZM4.935 19.2163C4.23539 17.8171 3.33589 15.8182 3.93556 14.219C5.23484 15.5183 6.63407 16.7177 8.13324 17.8171C7.03384 18.017 5.83451 18.5167 4.935 19.2163ZM7.03385 27.5117C9.23263 30.0103 11.9311 30.5101 11.9311 30.5101C9.93224 31.4096 7.43362 31.8093 7.03385 27.5117ZM13.1305 44.1025C13.1305 44.1025 14.5297 44.1025 14.5297 44.5023C14.7296 47.2008 13.1305 44.1025 13.1305 44.1025ZM10.6319 36.4068C13.8301 38.2058 17.4281 39.5051 21.0261 40.3046C8.33313 42.0037 9.13269 35.5073 10.6319 36.4068ZM23.3249 45.8016C23.3249 45.8016 20.7263 46.5012 18.5275 46.0015C20.0267 44.4024 23.3249 45.8016 23.3249 45.8016ZM19.8268 51.0987C19.0272 52.298 17.0283 49.9993 17.0283 48.9998C17.1283 47.0009 22.9251 48.6001 22.9251 48.6001C22.9251 48.6001 20.5264 49.9993 19.8268 51.0987ZM22.5253 55.7961C24.1244 55.7961 25.8235 55.6962 27.4226 55.3963C26.5231 56.5957 24.6241 58.0948 22.5253 55.7961ZM25.0239 51.5984C27.7224 50.3991 29.4215 50.3991 29.4215 50.3991C29.4215 50.3991 27.4226 52.0981 25.0239 51.5984ZM13.93 33.5084C19.2271 30.9098 23.8246 34.8077 31.5203 36.6067C28.6219 37.4062 18.6274 37.2064 13.93 33.5084ZM25.7235 30.9098C25.7235 30.9098 32.8196 31.4096 31.5203 30.2102C27.2227 26.1125 12.9306 31.9093 7.03385 22.2146C9.73236 19.816 12.8306 20.8154 15.5292 22.3146C10.6319 25.4129 15.9289 23.414 18.7274 24.0136C23.7246 25.113 33.4193 28.0114 35.4182 32.0092C29.4215 32.7088 25.7235 30.9098 25.7235 30.9098ZM39.0162 31.4096C39.6159 31.9093 42.2144 31.5095 42.2144 31.5095C40.7153 32.3091 38.3166 34.0081 39.0162 31.4096ZM11.9311 15.5183C29.6214 17.0175 40.8152 21.8149 43.014 28.1114C29.6214 27.012 34.9184 20.5156 11.9311 15.5183ZM53.908 27.6117C53.7081 21.9148 44.4132 13.0197 48.9107 22.6144C50.8097 26.7122 48.5109 30.0103 46.512 26.8121C36.7175 11.3206 16.2288 17.3173 7.33368 12.0203C16.2288 7.72263 51.0096 20.0158 42.1145 16.0181C16.4287 4.22456 4.73511 10.621 4.73511 7.72263C4.73511 2.42556 22.2255 -0.572786 45.6125 9.72153C16.8284 4.12462 13.93 7.12297 18.7274 7.62269C53.908 11.2207 59.9047 21.7149 53.908 27.6117Z" fill="url(#paint0_linear_1_320)"/>
<defs>
<linearGradient id="paint0_linear_1_320" x1="60" y1="30.2303" x2="0.000813682" y2="29.6694" gradientUnits="userSpaceOnUse">
<stop stop-color="#2685BF"/>
<stop offset="1" stop-color="#90007F"/>
</linearGradient>
</defs>
</svg>
