<svg width="59" height="13" viewBox="0 0 59 13" fill="none" xmlns="http://www.w3.org/2000/svg">
<g clip-path="url(#clip0_1_303)">
<path d="M18.3233 1.93945C17.6325 1.93945 16.9668 2.02887 16.6957 2.10445C16.3011 2.21876 16.2027 2.39666 16.1284 2.76538L14.5625 10.2088C14.5375 10.3609 14.5133 10.4881 14.5133 10.6153C14.5133 10.9841 14.7477 11.2246 15.1298 11.2246C15.5495 11.2246 15.7222 10.9453 15.8081 10.513L16.2519 8.39198C16.5597 8.42977 16.9668 8.46849 17.5466 8.46849C20.0994 8.46849 21.6894 7.04617 21.6894 4.89932C21.6894 3.01887 20.4189 1.93945 18.3233 1.93945ZM17.4849 7.24896C17.0903 7.24896 16.7816 7.23606 16.4988 7.19826L17.3247 3.24747C17.5833 3.20968 17.9663 3.15806 18.3609 3.15806C19.7173 3.15806 20.4081 3.81898 20.4081 4.9113C20.4072 6.30874 19.4203 7.24896 17.4849 7.24896Z" fill="white"/>
<path d="M58.4944 8.77272C58.285 8.77272 58.149 8.89992 57.8905 9.19213C57.4341 9.67515 57.1505 9.94155 56.7935 9.94155C56.4731 9.94155 56.3004 9.67515 56.3004 9.24283C56.3004 9.00132 56.3496 8.70911 56.4114 8.39202L56.8677 6.18157H58.2367C58.668 6.18157 58.9275 5.92715 58.9275 5.46994C58.9275 5.21553 58.7673 5.02564 58.3978 5.02564H57.1138L57.3357 3.99692C57.3607 3.84483 57.3849 3.70472 57.3849 3.57751C57.3849 3.2217 57.1505 2.96729 56.7684 2.96729C56.3613 2.96729 56.177 3.24659 56.0902 3.67891L55.8065 5.02564H55.2267C54.7829 5.02564 54.5243 5.28006 54.5243 5.73726C54.5243 5.99168 54.697 6.18157 55.0665 6.18157H55.5721L55.1157 8.36621C55.0665 8.60772 55.0048 9.00132 55.0048 9.40783C55.0048 10.4365 55.5229 11.186 56.6324 11.186C57.274 11.186 57.8403 10.856 58.2725 10.4614C58.6922 10.0807 59 9.61062 59 9.30551C59 9.01423 58.7781 8.77272 58.4944 8.77272Z" fill="white"/>
<path d="M30.1353 2.68884C30.1353 2.32012 29.8883 2.07861 29.5063 2.07861C29.0991 2.07861 28.9148 2.35792 28.828 2.79023L27.2872 10.1701C27.2505 10.3222 27.2255 10.4494 27.2255 10.5766C27.2255 10.9453 27.4724 11.1859 27.842 11.1859C28.2616 11.1859 28.4459 10.9066 28.5327 10.4743L30.0735 3.09535C30.0986 2.94233 30.1353 2.81605 30.1353 2.68884Z" fill="white"/>
<path d="M52.1441 4.8985C50.1712 4.8985 48.8272 6.91814 48.8272 8.83639C48.8272 8.87234 48.8281 8.90829 48.829 8.94332C48.5194 9.42725 48.1239 9.92871 47.8528 9.92871C47.6559 9.92871 47.5817 9.7379 47.5817 9.44569C47.5817 9.08988 47.6801 8.49256 47.791 7.97175L48.8147 3.09364C48.8397 2.94154 48.8639 2.81434 48.8639 2.68713C48.8639 2.31841 48.6294 2.0769 48.2474 2.0769C47.8277 2.0769 47.6559 2.35621 47.5691 2.78853L47.0144 5.43037C46.7182 5.11328 46.286 4.89666 45.6328 4.89666C44.3229 4.89666 43.0049 5.93552 42.4913 7.52929C41.9257 9.03549 41.4202 9.92686 41.0211 9.92686C40.8735 9.92686 40.7867 9.79966 40.7867 9.58396C40.7867 8.94884 41.1321 7.39932 41.2797 6.6499C41.3289 6.3706 41.354 6.2563 41.354 6.0913C41.354 5.53269 40.4538 4.87177 39.2826 4.87177C37.9279 4.87177 36.7011 5.75577 36.0864 7.06839C35.1728 8.7313 34.3344 9.92686 33.9193 9.92686C33.734 9.92686 33.6723 9.68536 33.6231 9.45675L33.3162 7.70627L35.2024 6.11895C35.3751 5.96686 35.597 5.75024 35.597 5.47093C35.597 5.12803 35.3751 4.89942 35.0422 4.89942C34.7952 4.89942 34.5859 5.05152 34.3765 5.22942L31.5409 7.64267L32.4903 3.09548C32.5154 2.94339 32.552 2.81618 32.552 2.68897C32.552 2.32026 32.3051 2.07875 31.923 2.07875C31.5159 2.07875 31.3316 2.35805 31.2448 2.79037L29.704 10.1702C29.6673 10.3223 29.6422 10.4495 29.6422 10.5767C29.6422 10.9454 29.8892 11.186 30.2587 11.186C30.6784 11.186 30.8627 10.9067 30.9495 10.4744L31.1472 9.5222L32.306 8.55709L32.5896 10.0301C32.7006 10.6145 32.9967 11.186 33.7609 11.186C34.5214 11.186 35.1201 10.4707 35.7196 9.50376C35.9012 10.5168 36.6009 11.186 37.5718 11.186C38.5462 11.186 39.2119 10.5887 39.6432 9.7886V9.81441C39.6432 10.6403 40.0503 11.186 40.7652 11.186C41.4121 11.186 41.949 10.7841 42.4286 9.93055C42.7006 10.6744 43.3091 11.186 44.1555 11.186C45.1541 11.186 45.869 10.5638 46.3254 9.7001V9.77661C46.3254 10.691 46.7692 11.187 47.4967 11.187C48.1391 11.187 48.6849 10.8026 49.1511 10.1776C49.5054 10.8026 50.1407 11.187 50.9988 11.187C52.9718 11.187 54.3158 9.16731 54.3158 7.23616C54.3149 5.87652 53.5132 4.8985 52.1441 4.8985ZM39.8516 7.47767C39.4937 9.06499 38.7296 9.96742 37.8661 9.96742C37.2863 9.96742 36.966 9.51022 36.966 8.8244C36.966 7.47767 37.9153 6.02954 39.185 6.02954C39.5671 6.02954 39.8633 6.14384 40.1219 6.30884L39.8516 7.47767ZM46.7191 6.80476C46.3245 8.67231 45.4243 9.96742 44.4383 9.96742C43.8961 9.96742 43.5748 9.5351 43.5748 8.8244C43.5748 7.46569 44.4875 6.05535 45.708 6.05535C46.1768 6.05535 46.5339 6.22035 46.7934 6.43605L46.7191 6.80476ZM51.1456 9.96742C50.4306 9.96742 50.1345 9.43371 50.1345 8.7608C50.1345 7.52837 50.9603 6.11895 51.9965 6.11895C52.7114 6.11895 53.0076 6.65267 53.0076 7.32557C53.0076 8.56999 52.1817 9.96742 51.1456 9.96742Z" fill="white"/>
<path d="M24.7595 4.89844C22.7865 4.89844 21.4425 6.91808 21.4425 8.83632C21.4425 10.2079 22.2442 11.186 23.6123 11.186C25.5853 11.186 26.9293 9.16632 26.9293 7.23517C26.9293 5.87646 26.1276 4.89844 24.7595 4.89844ZM23.7609 9.96736C23.046 9.96736 22.7498 9.43364 22.7498 8.76074C22.7498 7.5283 23.5757 6.11889 24.6118 6.11889C25.3267 6.11889 25.6229 6.6526 25.6229 7.32551C25.622 8.56993 24.7961 9.96736 23.7609 9.96736Z" fill="white"/>
<path d="M5.93241 2.72665C7.18909 2.72665 8.20783 2.11627 8.20783 1.36333C8.20783 0.610382 7.18909 0 5.93241 0C4.67572 0 3.65698 0.610382 3.65698 1.36333C3.65698 2.11627 4.67572 2.72665 5.93241 2.72665Z" fill="#E6007A"/>
<path d="M5.93241 12.9991C7.18909 12.9991 8.20783 12.3887 8.20783 11.6358C8.20783 10.8828 7.18909 10.2725 5.93241 10.2725C4.67572 10.2725 3.65698 10.8828 3.65698 11.6358C3.65698 12.3887 4.67572 12.9991 5.93241 12.9991Z" fill="#E6007A"/>
<path d="M2.76143 4.61379C3.38978 3.49265 3.3857 2.27839 2.75233 1.90167C2.11895 1.52494 1.09613 2.1284 0.467791 3.24954C-0.16055 4.37068 -0.156472 5.58494 0.4769 5.96167C1.11027 6.33839 2.13309 5.73493 2.76143 4.61379Z" fill="#E6007A"/>
<path d="M11.396 9.74934C12.0243 8.6282 12.0206 7.41415 11.3877 7.03768C10.7547 6.66121 9.73224 7.26488 9.1039 8.38602C8.47556 9.50715 8.47929 10.7212 9.11223 11.0977C9.74518 11.4742 10.7677 10.8705 11.396 9.74934Z" fill="#E6007A"/>
<path d="M2.75269 11.0974C3.38606 10.7206 3.39014 9.50637 2.7618 8.38523C2.13346 7.2641 1.11064 6.66063 0.477266 7.03736C-0.156106 7.41408 -0.160184 8.62834 0.468157 9.74948C1.0965 10.8706 2.11932 11.4741 2.75269 11.0974Z" fill="#E6007A"/>
<path d="M11.3883 5.96208C12.0212 5.58561 12.0249 4.37155 11.3966 3.25041C10.7683 2.12928 9.74579 1.5256 9.11284 1.90208C8.4799 2.27855 8.47617 3.4926 9.10451 4.61374C9.73285 5.73488 10.7553 6.33855 11.3883 5.96208Z" fill="#E6007A"/>
</g>
<defs>
<clipPath id="clip0_1_303">
<rect width="59" height="13" fill="white"/>
</clipPath>
</defs>
</svg>
