<svg width="60" height="60" viewBox="0 0 60 60" fill="none" xmlns="http://www.w3.org/2000/svg">
<g clip-path="url(#clip0_1_342)">
<path d="M55.6777 10.324H15.6611C13.4902 10.324 11.7241 12.0903 11.7241 14.2612V16.1099C11.7241 16.1768 11.7285 16.2429 11.7341 16.3083H9.73389C7.56299 16.3083 5.79663 18.0745 5.79663 20.2456V21.9119H3.9707C1.7998 21.9119 0.0334473 23.6782 0.0334473 25.8489V45.7493C0.0334473 47.9204 1.7998 49.6865 3.9707 49.6865H43.9873C46.1587 49.6865 47.9248 47.9204 47.9248 45.7493V44.0803C47.9409 44.0808 47.9573 44.0828 47.9739 44.0828H49.75C51.9214 44.0828 53.6873 42.3166 53.6873 40.1458V38.0874C53.7578 38.0937 53.8293 38.0984 53.9014 38.0984H55.6775C57.8486 38.0984 59.6147 36.332 59.6147 34.1611V14.2612C59.615 12.0903 57.8486 10.324 55.6777 10.324Z" fill="#D1D1D1"/>
<path d="M49.75 18.6233H9.73364C9.52058 18.6233 9.3096 18.6653 9.11275 18.7468C8.91591 18.8284 8.73706 18.9479 8.58641 19.0985C8.43576 19.2492 8.31626 19.4281 8.23475 19.6249C8.15323 19.8218 8.1113 20.0328 8.11133 20.2459V22.0942H43.7556C46.0813 22.0942 47.9736 23.9863 47.9736 26.312V41.7681H49.75C50.1803 41.7681 50.593 41.5972 50.8972 41.2929C51.2015 40.9887 51.3725 40.576 51.3726 40.1458V20.2456C51.3725 19.8153 51.2015 19.4027 50.8972 19.0984C50.593 18.7942 50.1803 18.6233 49.75 18.6233Z" fill="url(#paint0_linear_1_342)"/>
<path d="M23.9788 41.7939C27.2895 41.7939 29.9734 39.1101 29.9734 35.7993C29.9734 32.4886 27.2895 29.8047 23.9788 29.8047C20.668 29.8047 17.9841 32.4886 17.9841 35.7993C17.9841 39.1101 20.668 41.7939 23.9788 41.7939Z" fill="url(#paint1_linear_1_342)"/>
<path d="M43.9871 24.2268H3.97046C3.54019 24.2268 3.12755 24.3977 2.82331 24.702C2.51907 25.0062 2.34814 25.4189 2.34814 25.8491V45.75C2.34821 46.1802 2.51915 46.5928 2.82338 46.8971C3.12761 47.2013 3.54021 47.3722 3.97046 47.3723H43.9871C44.4173 47.3722 44.83 47.2013 45.1342 46.8971C45.4385 46.5929 45.6095 46.1803 45.6096 45.75V25.8491C45.6096 25.6361 45.5676 25.4251 45.4861 25.2282C45.4046 25.0314 45.285 24.8525 45.1344 24.7019C44.9837 24.5512 44.8048 24.4317 44.608 24.3502C44.4111 24.2687 44.2001 24.2268 43.9871 24.2268ZM36.072 44.1267H11.3118C11.2114 40.7942 8.78076 38.0486 5.59277 37.4636V34.1345C8.78076 33.5496 11.2114 30.8037 11.3118 27.4714H36.072C36.3364 30.9072 38.9834 33.6738 42.3647 34.1221V37.4753C38.9834 37.9246 36.3364 40.6912 36.072 44.1267Z" fill="url(#paint2_linear_1_342)"/>
<path d="M55.6777 12.6389H15.6611C15.2309 12.639 14.8183 12.8099 14.5141 13.1142C14.2098 13.4184 14.0389 13.831 14.0388 14.2612V16.1099H49.6831C52.0088 16.1099 53.9009 18.002 53.9009 20.3279V35.7837H55.6772C56.1076 35.7837 56.5203 35.6127 56.8246 35.3085C57.1289 35.0042 57.2998 34.5915 57.2998 34.1611V14.2612C57.3 14.0482 57.2581 13.8371 57.1767 13.6403C57.0952 13.4434 56.9757 13.2645 56.8251 13.1138C56.6744 12.9631 56.4956 12.8436 56.2987 12.7622C56.1018 12.6807 55.8908 12.6388 55.6777 12.6389Z" fill="url(#paint3_linear_1_342)"/>
</g>
<defs>
<linearGradient id="paint0_linear_1_342" x1="51.3726" y1="30.2871" x2="8.12133" y2="29.5315" gradientUnits="userSpaceOnUse">
<stop stop-color="#2685BF"/>
<stop offset="1" stop-color="#90007F"/>
</linearGradient>
<linearGradient id="paint1_linear_1_342" x1="29.9734" y1="35.8466" x2="17.9843" y2="35.7346" gradientUnits="userSpaceOnUse">
<stop stop-color="#2685BF"/>
<stop offset="1" stop-color="#90007F"/>
</linearGradient>
<linearGradient id="paint2_linear_1_342" x1="45.6096" y1="35.8909" x2="2.35815" y2="35.1354" gradientUnits="userSpaceOnUse">
<stop stop-color="#2685BF"/>
<stop offset="1" stop-color="#90007F"/>
</linearGradient>
<linearGradient id="paint3_linear_1_342" x1="57.2998" y1="24.3027" x2="14.0488" y2="23.5471" gradientUnits="userSpaceOnUse">
<stop stop-color="#2685BF"/>
<stop offset="1" stop-color="#90007F"/>
</linearGradient>
<clipPath id="clip0_1_342">
<rect width="60" height="40" fill="white" transform="translate(0 10)"/>
</clipPath>
</defs>
</svg>
