<svg width="60" height="60" viewBox="0 0 60 60" fill="none" xmlns="http://www.w3.org/2000/svg">
<path d="M26.7714 45.3991L26.8647 44.6574H19.2934V47.4412H41.2366V44.6574H33.6654L33.7535 45.358C33.7555 45.3664 33.7554 45.3757 33.7564 45.3845L33.7569 45.3873C33.7572 45.3878 33.7569 45.3885 33.7572 45.3889C33.7601 45.4081 33.7638 45.427 33.7638 45.4471C33.7638 45.5428 33.7276 45.6293 33.6697 45.6967L33.6695 45.6969V45.697C33.6515 45.7181 33.6311 45.7371 33.6089 45.7537L33.6088 45.7538C33.5446 45.8019 33.4658 45.8314 33.3795 45.8314H27.1527C27.1251 45.8314 27.0976 45.8284 27.0707 45.8225C27.0609 45.8203 27.052 45.8161 27.0425 45.8134C27.0259 45.8082 27.009 45.8039 26.9933 45.7966C26.9827 45.7918 26.9733 45.7847 26.9632 45.779C26.9496 45.7713 26.9358 45.7644 26.9231 45.7553C26.913 45.7478 26.9046 45.7381 26.8952 45.7296C26.8849 45.7202 26.8738 45.7119 26.8644 45.7013L26.8628 45.699L26.8604 45.6968C26.8527 45.6876 26.8472 45.677 26.8404 45.6674C26.832 45.6553 26.8227 45.6439 26.8157 45.631C26.8096 45.6199 26.8058 45.6082 26.8009 45.5966C26.7952 45.583 26.7886 45.5697 26.7844 45.5557C26.7809 45.5435 26.7796 45.5311 26.7771 45.5188C26.7744 45.5044 26.7709 45.4902 26.7697 45.4755C26.7688 45.4628 26.7701 45.4499 26.7704 45.4369C26.771 45.4243 26.7698 45.4118 26.7714 45.3991ZM47.5179 48.21H13.0112V49.4598H47.5179V48.21ZM14.0072 41.2731C18.7739 41.2731 22.6752 37.4945 22.8771 32.7737H19.7651L19.7639 32.7739L19.7625 32.7737H5.13727C5.33918 37.4945 9.24059 41.2731 14.0072 41.2731ZM7.49625 34.7445C7.59511 34.7205 7.69945 34.7367 7.78641 34.7895C7.87338 34.8423 7.93587 34.9274 7.9602 35.0262C7.9643 35.0428 8.3925 36.6948 10.0785 37.7251C10.1221 37.7512 10.1601 37.7856 10.1902 37.8264C10.2204 37.8673 10.2422 37.9137 10.2544 37.963C10.2665 38.0123 10.2688 38.0636 10.261 38.1137C10.2533 38.1639 10.2356 38.2121 10.2091 38.2554C10.1827 38.2988 10.1478 38.3364 10.1067 38.3662C10.0656 38.396 10.019 38.4174 9.96954 38.429C9.92011 38.4407 9.86887 38.4425 9.81875 38.4342C9.76864 38.426 9.72066 38.4079 9.67758 38.381C7.71094 37.1795 7.23281 35.2886 7.21336 35.2087C7.20146 35.1597 7.19933 35.1088 7.20711 35.0589C7.21488 35.009 7.2324 34.9611 7.25867 34.918C7.28494 34.8749 7.31944 34.8374 7.36021 34.8077C7.40097 34.7779 7.4472 34.7565 7.49625 34.7445ZM27.4392 15.3874C27.4392 16.9472 28.7057 18.2161 30.2623 18.2161C31.822 18.2161 33.0909 16.9472 33.0909 15.3874C33.0909 13.8277 31.822 12.559 30.2623 12.559C28.7057 12.5588 27.4392 13.8277 27.4392 15.3874ZM14.0052 18.0956L8.7402 32.0049H19.2097L14.0052 18.0956Z" fill="url(#paint0_linear_1_343)"/>
<path d="M27.6025 45.0627H29.888V36.2509C29.888 36.149 29.9285 36.0512 30.0006 35.9792C30.0727 35.9071 30.1704 35.8666 30.2724 35.8666C30.3743 35.8666 30.472 35.9071 30.5441 35.9792C30.6162 36.0512 30.6567 36.149 30.6567 36.2509V45.0627H32.9276L32.8128 44.3328C32.8039 44.2736 32.8089 44.2132 32.8274 44.1562L30.2625 23.7905L27.7024 44.156C27.7206 44.2125 27.7268 44.2728 27.7173 44.333L27.6025 45.0627ZM45.9928 37.8437C50.7597 37.8437 54.6608 34.0701 54.8628 29.3549H51.7553L51.7542 29.355L51.7526 29.3549H37.1217C37.324 34.07 41.2258 37.8437 45.9928 37.8437ZM40.7302 28.5861H51.1996L45.9908 14.6862L40.7302 28.5861Z" fill="url(#paint1_linear_1_343)"/>
<path d="M10.7357 17.739C10.7493 17.739 10.7631 17.7383 10.7772 17.7367L24.6188 16.2557C25.0382 18.9928 27.4086 21.0959 30.2609 21.0959C33.4114 21.0959 35.9746 18.5351 35.9746 15.3873C35.9746 15.2733 35.9702 15.1605 35.9636 15.048L46.0173 13.9776L46.0643 13.9724L46.0689 13.9719L49.7138 13.5762C49.9248 13.5532 50.0774 13.3636 50.0543 13.1526C50.0312 12.9415 49.8416 12.7881 49.6308 12.8119L46.3757 13.1655V9.07502C46.3757 8.97311 46.3352 8.87537 46.2631 8.80331C46.1911 8.73125 46.0933 8.69076 45.9914 8.69076C45.8895 8.69076 45.7918 8.73125 45.7197 8.80331C45.6476 8.87537 45.6072 8.97311 45.6072 9.07502V13.2482L35.8668 14.2852C35.4462 12.146 33.8262 10.4322 31.7375 9.87354V7.32436C31.7375 6.51612 31.0753 5.85846 30.261 5.85846C29.4499 5.85846 28.7902 6.516 28.7902 7.32436V9.87237C26.3535 10.5229 24.5529 12.7484 24.5529 15.3874C24.5529 15.4217 24.5549 15.4555 24.5555 15.4895L14.3903 16.5771V12.4941C14.3903 12.3921 14.3498 12.2944 14.2777 12.2223C14.2056 12.1502 14.1078 12.1097 14.0059 12.1097C13.904 12.1097 13.8062 12.1502 13.7341 12.2223C13.662 12.2944 13.6215 12.3921 13.6215 12.4941V16.6593L10.6954 16.9724C10.594 16.9833 10.5011 17.0339 10.4371 17.1133C10.3731 17.1926 10.3433 17.2941 10.3541 17.3955C10.3642 17.4897 10.4087 17.5769 10.4791 17.6403C10.5495 17.7037 10.6409 17.7389 10.7357 17.739ZM33.8597 15.3874C33.8597 17.371 32.2459 18.9847 30.2624 18.9847C28.2819 18.9847 26.6706 17.371 26.6706 15.3874C26.6706 13.4039 28.2819 11.7903 30.2624 11.7903C32.2458 11.7901 33.8597 13.4039 33.8597 15.3874ZM30.9536 9.7226L30.9687 9.72401L30.9524 9.7226C30.9508 9.72229 30.9494 9.72213 30.948 9.72213L30.9536 9.7226ZM30.6585 9.69447L30.6572 9.69459C30.6549 9.69428 30.6525 9.69405 30.65 9.69389L30.6585 9.69447ZM30.5967 9.6899H30.5977H30.5954L30.5945 9.68979L30.5967 9.6899ZM30.2679 9.67948L30.2613 9.67936H30.2623L30.2679 9.67948ZM29.5588 7.32436C29.5588 6.93998 29.8738 6.62721 30.2609 6.62721L30.2617 6.62733C29.8747 6.62768 29.5602 6.94022 29.5602 7.32436V9.72377L29.5589 9.72389L29.5588 7.32436ZM29.2424 10.5542C29.2454 10.5537 29.2486 10.554 29.2516 10.5533C29.5837 10.4844 29.9218 10.4491 30.2609 10.4481H30.2617C29.9228 10.4492 29.5849 10.4844 29.253 10.5533C29.25 10.554 29.247 10.5537 29.2439 10.5542C29.0421 10.5968 28.8432 10.6521 28.6484 10.7197C28.8427 10.6522 29.0411 10.5969 29.2424 10.5542ZM25.3654 14.74C25.337 14.9546 25.3228 15.1708 25.3229 15.3873C25.3229 18.111 27.5384 20.3268 30.2617 20.3272H30.2609C27.5374 20.3272 25.3216 18.1112 25.3216 15.3873C25.322 15.1708 25.3366 14.9546 25.3654 14.74ZM10.4167 51.4268C10.3159 51.4286 10.2199 51.4698 10.1492 51.5417C10.0786 51.6136 10.039 51.7104 10.039 51.8111C10.039 51.9119 10.0786 52.0087 10.1492 52.0805C10.2199 52.1524 10.3159 52.1937 10.4167 52.1955H39.0604C39.1611 52.1937 39.2572 52.1524 39.3278 52.0805C39.3984 52.0087 39.438 51.9119 39.438 51.8111C39.438 51.7104 39.3984 51.6136 39.3278 51.5417C39.2572 51.4698 39.1611 51.4286 39.0604 51.4268H10.4167ZM47.9577 53.3727H25.7811C25.6792 53.3727 25.5814 53.4132 25.5093 53.4853C25.4373 53.5574 25.3968 53.6552 25.3968 53.7571C25.3968 53.859 25.4373 53.9568 25.5093 54.0289C25.5814 54.101 25.6792 54.1415 25.7811 54.1415H47.9577C48.1698 54.1415 48.3421 53.9693 48.3421 53.7571C48.3421 53.5449 48.1698 53.3727 47.9577 53.3727ZM52.9985 53.3727H50.223C50.1211 53.3727 50.0233 53.4132 49.9513 53.4853C49.8792 53.5574 49.8387 53.6552 49.8387 53.7571C49.8387 53.859 49.8792 53.9568 49.9513 54.0289C50.0233 54.101 50.1211 54.1415 50.223 54.1415H52.9985C53.1005 54.1415 53.1982 54.101 53.2703 54.0289C53.3424 53.9568 53.3829 53.859 53.3829 53.7571C53.3829 53.6552 53.3424 53.5574 53.2703 53.4853C53.1982 53.4132 53.1005 53.3727 52.9985 53.3727ZM16.2659 53.3216H5.75754C5.70651 53.3207 5.65581 53.33 5.6084 53.3489C5.56099 53.3678 5.51782 53.396 5.48142 53.4318C5.44501 53.4676 5.4161 53.5102 5.39636 53.5573C5.37662 53.6044 5.36646 53.6549 5.36646 53.7059C5.36646 53.757 5.37662 53.8075 5.39636 53.8546C5.4161 53.9017 5.44501 53.9443 5.48142 53.9801C5.51782 54.0159 5.56099 54.044 5.6084 54.063C5.65581 54.0819 5.70651 54.0912 5.75754 54.0903H16.2659C16.3169 54.0912 16.3676 54.0819 16.415 54.063C16.4624 54.044 16.5056 54.0159 16.542 53.9801C16.5784 53.9443 16.6073 53.9017 16.627 53.8546C16.6468 53.8075 16.6569 53.757 16.6569 53.7059C16.6569 53.6549 16.6468 53.6044 16.627 53.5573C16.6073 53.5102 16.5784 53.4676 16.542 53.4318C16.5056 53.396 16.4624 53.3678 16.415 53.3489C16.3676 53.33 16.3169 53.3207 16.2659 53.3216Z" fill="url(#paint2_linear_1_343)"/>
<defs>
<linearGradient id="paint0_linear_1_343" x1="47.5179" y1="31.1551" x2="5.13902" y2="30.7002" gradientUnits="userSpaceOnUse">
<stop stop-color="#2685BF"/>
<stop offset="1" stop-color="#90007F"/>
</linearGradient>
<linearGradient id="paint1_linear_1_343" x1="54.8628" y1="29.9943" x2="27.6024" y2="29.7657" gradientUnits="userSpaceOnUse">
<stop stop-color="#2685BF"/>
<stop offset="1" stop-color="#90007F"/>
</linearGradient>
<linearGradient id="paint2_linear_1_343" x1="53.3829" y1="30.1906" x2="5.36706" y2="29.7443" gradientUnits="userSpaceOnUse">
<stop stop-color="#2685BF"/>
<stop offset="1" stop-color="#90007F"/>
</linearGradient>
</defs>
</svg>
